<svg width="14" height="16" viewBox="0 0 14 16" fill="none" xmlns="http://www.w3.org/2000/svg">
<path fill-rule="evenodd" clip-rule="evenodd" d="M12.3558 3.62922C12.356 6.2662 12.3565 10.571 12.3557 13.066C12.3551 14.7711 11.1256 15.9986 9.41847 15.9993C7.52368 16.0001 5.5741 16.0004 3.65189 15.9992C1.96421 15.9982 0.732954 14.7633 0.731817 13.0718C0.730999 11.7837 0.731681 10.4957 0.731817 9.20769C0.731908 7.9627 0.732545 5.14844 0.731681 3.62995C0.386388 3.60958 0.112982 3.41406 0.0248175 3.06631C-0.0637564 2.75212 0.0904749 2.41333 0.3963 2.26692C0.520249 2.20758 0.671889 2.18403 0.829257 2.1828C1.65898 2.17535 2.5068 2.19008 3.35461 2.19008C3.43664 2.19008 3.51867 2.19008 3.63461 2.19008C3.63461 1.69815 3.63325 1.25223 3.63493 0.806316C3.63684 0.294379 3.92684 0.0207458 4.4326 0.0139254C5.84055 -0.00471691 7.2485 -0.00471691 8.65645 0.0143801C9.16129 0.0212005 9.47294 0.295152 9.49067 0.807544C9.45412 1.25337 9.45293 1.69919 9.45293 2.16766C9.55056 2.17198 9.63481 2.18462 9.71088 2.18553C10.5662 2.19281 11.4217 2.1869 12.277 2.19553C12.7615 2.20463 13.0859 2.4769 13.0827 2.91022C13.0798 3.31308 12.7869 3.6018 12.3558 3.62922ZM7.97591 1.46425C7.00897 1.46425 6.06084 1.46425 5.10386 1.46425C5.10386 1.70188 5.10386 1.92513 5.10386 2.16302C6.07812 2.16302 7.02584 2.16302 7.97591 2.16302C7.97591 1.91804 7.97591 1.68928 7.97591 1.46425ZM10.9018 3.63195C8.0202 3.63254 5.09035 3.63254 2.18465 3.63195C2.18233 5.98716 2.1816 9.89682 2.18528 12.1264C2.18606 12.5675 2.1661 13.0069 2.23316 13.452C2.32824 14.0826 2.89433 14.5391 3.53262 14.5416C5.538 14.5845 7.5435 14.5505 9.54887 14.5415C10.35 14.538 10.9014 13.9388 10.9021 13.1224C10.9098 10.5842 10.9352 6.30945 10.9018 3.63195ZM8.16225 12.3413C7.8486 12.421 7.5069 12.3151 7.40137 11.9734C7.30165 11.8495 7.27701 11.6979 7.27573 11.5584C7.28769 10.7325 7.27196 9.9066 7.27196 9.08065C7.27192 8.2623 7.27078 7.44395 7.27237 6.62559C7.27333 6.14057 7.56874 5.81374 7.99951 5.81988C8.4296 5.83216 8.7418 6.14471 8.74498 6.631C8.75589 8.28285 8.76044 9.9347 8.73998 11.5866C8.73498 11.9828 8.51795 12.2509 8.16225 12.3413ZM5.83541 11.6349C5.82904 11.9796 5.6132 12.2316 5.29642 12.3274C5.0006 12.4192 4.66522 12.3324 4.50116 12.0764C4.42286 11.9184 4.36939 11.7514 4.36857 11.6011C4.39176 9.92656 4.36075 8.25193 4.36416 6.57735C4.36507 6.13312 4.68208 5.81165 5.09594 5.82443C5.51185 5.85398 5.82722 6.16681 5.84678 6.59285C5.81808 7.4294 5.81549 8.27053 5.85542 9.11162C5.8536 9.9527 5.81886 10.7938 5.83541 11.6349Z" fill="#202452"/>
</svg>
