<svg width="12" height="12" viewBox="0 0 12 12" fill="none" xmlns="http://www.w3.org/2000/svg">
<path fill-rule="evenodd" clip-rule="evenodd" d="M11.4806 9.41479C10.9315 8.86618 10.3822 8.31716 9.83315 7.76807C9.24497 7.18011 8.65681 6.59191 8.06847 6.00432L9.0799 4.99258C9.86334 4.20886 10.6464 3.42519 11.4296 2.65981C11.5227 2.54778 11.6257 2.446 11.7176 2.31811C12.0055 1.91013 12.0734 1.39299 11.9035 0.952448C11.7162 0.474937 11.3145 0.139062 10.8215 0.0359238C10.306 -0.072015 9.82776 0.0985393 9.39989 0.52174C8.81219 1.11274 8.22337 1.70274 7.63458 2.29274C7.08868 2.83935 6.54339 3.38601 5.99844 3.9333C5.24981 3.18271 4.50955 2.43265 3.75125 1.68267L3.23761 1.16846C3.16421 1.09522 3.0919 1.02132 3.01882 0.947329L3.01167 0.939707C2.83564 0.760552 2.65357 0.575436 2.46131 0.395439C2.15055 0.0902118 1.69728 -0.0482384 1.26099 0.0150141C0.819455 0.079336 0.434344 0.35701 0.20461 0.733522C-0.152538 1.35176 -0.0373414 2.0363 0.512659 2.58734C1.31708 3.3935 2.12227 4.1989 2.92763 5.0043L3.92681 6.00364L3.80809 6.13502C2.71314 7.21786 1.64087 8.28999 0.569859 9.36219L0.549199 9.38271C0.488245 9.45905 0.377622 9.55395 0.287862 9.67602C0.0374694 10.0167 -0.0542011 10.454 0.0361952 10.8492C0.12691 11.2569 0.393821 11.6078 0.778114 11.8121C0.993763 11.9346 1.22873 11.9967 1.46643 11.9967C1.8714 11.9967 2.25287 11.8203 2.60049 11.4728C3.3361 10.7381 4.07108 10.0031 4.80574 9.26788L5.99955 8.07398L6.2552 8.33006C7.27377 9.35004 8.32713 10.4048 9.36064 11.4353C9.48203 11.5563 9.6722 11.731 9.92006 11.8517C10.3509 12.0788 10.8579 12.036 11.2767 11.7856C11.7044 11.5301 11.9723 11.0848 11.9925 10.5945C12.0196 9.95287 11.6137 9.54783 11.4806 9.41479Z" fill="#202452"/>
</svg>
