<svg width="16" height="16" viewBox="0 0 16 16" fill="none" xmlns="http://www.w3.org/2000/svg">
<path fill-rule="evenodd" clip-rule="evenodd" d="M15.3074 12.5531C14.5753 11.8216 13.843 11.0895 13.1109 10.3574C12.3266 9.57349 11.5424 8.78922 10.758 8.00576L12.1065 6.65677C13.1511 5.61181 14.1953 4.56692 15.2394 3.54642C15.3636 3.39704 15.5009 3.26134 15.6235 3.09082C16.0073 2.54684 16.0978 1.85732 15.8713 1.26993C15.6216 0.63325 15.086 0.185416 14.4287 0.0478985C13.7413 -0.09602 13.1037 0.131386 12.5332 0.695653C11.7496 1.48366 10.9645 2.27032 10.1794 3.05699C9.45157 3.7858 8.72452 4.51468 7.99792 5.2444C6.99974 4.24362 6.01273 3.24353 5.00167 2.24357L4.31681 1.55795C4.21894 1.4603 4.12253 1.36176 4.02509 1.26311L4.01557 1.25294C3.78085 1.01407 3.53809 0.767248 3.28175 0.527253C2.86741 0.120282 2.26303 -0.0643179 1.68132 0.0200188C1.09261 0.105781 0.579125 0.476013 0.272814 0.978029C-0.203384 1.80234 -0.0497885 2.71506 0.683545 3.44979C1.7561 4.52466 2.8297 5.59853 3.9035 6.67239L5.23574 8.00485L5.07745 8.18002C3.61752 9.62382 2.18783 11.0533 0.759812 12.4829L0.732266 12.5103C0.650993 12.6121 0.503495 12.7386 0.383816 12.9014C0.0499591 13.3557 -0.0722681 13.9386 0.0482603 14.4657C0.169213 15.0092 0.525095 15.4771 1.03749 15.7495C1.32502 15.9128 1.63831 15.9956 1.95524 15.9956C2.4952 15.9956 3.00383 15.7605 3.46732 15.2971C4.44814 14.3175 5.42811 13.3374 6.40766 12.3572L7.9994 10.7653L8.34027 11.1067C9.69836 12.4667 11.1028 13.8731 12.4809 15.247C12.6427 15.4084 12.8963 15.6414 13.2268 15.8022C13.8012 16.105 14.4772 16.048 15.0356 15.7142C15.6059 15.3734 15.963 14.7797 15.99 14.126C16.0262 13.2705 15.4849 12.7304 15.3074 12.5531Z" fill="#202452"/>
</svg>
