<svg width="16" height="16" viewBox="0 0 16 16" fill="none" xmlns="http://www.w3.org/2000/svg">
<path d="M3.34652 1.65097C3.51316 1.72846 3.65355 1.78178 3.78186 1.85719C4.16513 2.08131 4.54534 2.31044 4.9225 2.54457C5.03748 2.61581 5.1308 2.6333 5.26453 2.56707C5.51198 2.44209 5.77611 2.35377 6.02565 2.23379C6.10093 2.19598 6.15859 2.13041 6.18645 2.0509C6.3231 1.53474 6.44849 1.01608 6.57347 0.496999C6.66554 0.120396 6.80885 0 7.19837 0C7.73994 0 8.28152 0 8.82309 0C9.18678 0 9.34092 0.127478 9.42424 0.47492C9.54922 1.00066 9.67711 1.52641 9.81501 2.04924C9.84354 2.12868 9.90116 2.19434 9.97623 2.23296C10.1366 2.31336 10.3266 2.34294 10.4728 2.44125C10.749 2.62539 10.9727 2.56623 11.2248 2.39126C11.5435 2.17047 11.8859 1.98425 12.2225 1.79011C12.4908 1.63556 12.6749 1.65972 12.8966 1.87843C13.3065 2.28309 13.7137 2.69038 14.118 3.10031C14.3422 3.32735 14.3638 3.51024 14.1984 3.79269C13.9635 4.19387 13.7252 4.59256 13.479 4.98707C13.4449 5.03397 13.4249 5.08964 13.4214 5.14752C13.418 5.20539 13.4311 5.26305 13.4594 5.31368C13.5681 5.54531 13.6523 5.78902 13.7652 6.01856C13.8074 6.0985 13.8787 6.1592 13.9643 6.18812C14.4867 6.32685 15.0129 6.45141 15.5382 6.57972C15.8681 6.66054 15.9965 6.81551 15.999 7.14962C16.0015 7.71869 16.0015 8.28804 15.999 8.85767C15.999 9.18053 15.8644 9.34134 15.5515 9.41757C15.0195 9.54755 14.4867 9.67253 13.9572 9.81292C13.8722 9.84432 13.8024 9.90708 13.7623 9.98831C13.6494 10.2184 13.5499 10.4549 13.4644 10.6965C13.4369 10.7837 13.4438 10.878 13.4836 10.9602C13.7131 11.3643 13.9597 11.7584 14.1951 12.1588C14.3667 12.4504 14.3442 12.6258 14.1068 12.867C13.7118 13.2669 13.3144 13.6646 12.9145 14.0601C12.6741 14.2992 12.4771 14.3238 12.1859 14.1509C11.8043 13.9243 11.4243 13.6948 11.046 13.4623C10.9386 13.3961 10.849 13.3761 10.724 13.4386C10.4828 13.5585 10.2241 13.6469 9.98206 13.7631C9.9015 13.8049 9.84006 13.876 9.81042 13.9618C9.67086 14.4909 9.5463 15.0241 9.41632 15.5561C9.3405 15.8665 9.17803 15.9965 8.85142 15.9981C8.28235 16.0006 7.713 16.0006 7.14338 15.9981C6.81926 15.9981 6.66012 15.8673 6.58222 15.5524C6.45308 15.0275 6.32101 14.503 6.19978 13.976C6.19119 13.9229 6.16778 13.8733 6.13226 13.8329C6.09674 13.7925 6.05055 13.763 5.99899 13.7477C5.75944 13.6573 5.52198 13.5594 5.29077 13.4486C5.17496 13.3927 5.08789 13.4069 4.98499 13.4711C4.61922 13.6968 4.2497 13.9164 3.88101 14.1376C3.56731 14.3259 3.37818 14.3042 3.11947 14.0485C2.73065 13.6627 2.34308 13.2754 1.95675 12.8866C1.70055 12.6287 1.68013 12.4396 1.86885 12.1259C2.08673 11.763 2.30128 11.3985 2.52541 11.0398C2.59873 10.9227 2.60873 10.8257 2.54832 10.6974C2.43417 10.4607 2.34835 10.2104 2.23462 9.97373C2.19621 9.89846 2.13003 9.84109 2.05007 9.81376C1.52724 9.67586 1.0015 9.54922 0.475753 9.42257C0.134561 9.3405 0.00333277 9.1872 0 8.84184C0 8.27971 0 7.71744 0 7.15504C0 6.81926 0.130395 6.66137 0.458256 6.58139C0.983584 6.45224 1.50974 6.32893 2.03174 6.18854C2.11506 6.16646 2.19213 6.07939 2.24004 6.00232C2.29461 5.919 2.29336 5.79402 2.35169 5.71403C2.59539 5.38076 2.50333 5.08914 2.28545 4.78127C2.07382 4.48216 1.89968 4.15638 1.71179 3.84018C1.51349 3.50691 1.53391 3.33402 1.8022 3.06448C2.18921 2.6758 2.57331 2.2842 2.96866 1.90384C3.07448 1.80344 3.21321 1.73887 3.34652 1.65097ZM8.02948 11.2856C9.84125 11.2552 11.3252 9.74043 11.286 7.96157C11.2443 6.15354 9.7446 4.68379 7.9724 4.71545C6.16562 4.7492 4.69504 6.23894 4.71587 8.01864C4.7367 9.82709 6.24894 11.316 8.02948 11.2856Z" fill="#202452"/>
</svg>
