<svg width="16" height="16" viewBox="0 0 16 16" fill="none" xmlns="http://www.w3.org/2000/svg">
<path fill-rule="evenodd" clip-rule="evenodd" d="M13.3558 3.62922C13.356 6.2662 13.3565 10.571 13.3557 13.066C13.3551 14.7711 12.1256 15.9986 10.4185 15.9993C8.52368 16.0001 6.5741 16.0004 4.65189 15.9992C2.96421 15.9982 1.73295 14.7633 1.73182 13.0718C1.731 11.7837 1.73168 10.4957 1.73182 9.20769C1.73191 7.9627 1.73254 5.14844 1.73168 3.62995C1.38639 3.60958 1.11298 3.41406 1.02482 3.06631C0.936244 2.75212 1.09047 2.41333 1.3963 2.26692C1.52025 2.20758 1.67189 2.18403 1.82926 2.1828C2.65898 2.17535 3.5068 2.19008 4.35461 2.19008C4.43664 2.19008 4.51867 2.19008 4.63461 2.19008C4.63461 1.69815 4.63325 1.25223 4.63493 0.806316C4.63684 0.294379 4.92684 0.0207458 5.4326 0.0139254C6.84055 -0.00471691 8.2485 -0.00471691 9.65645 0.0143801C10.1613 0.0212005 10.4729 0.295152 10.4907 0.807544C10.4541 1.25337 10.4529 1.69919 10.4529 2.16766C10.5506 2.17198 10.6348 2.18462 10.7109 2.18553C11.5662 2.19281 12.4217 2.1869 13.277 2.19553C13.7615 2.20463 14.0859 2.4769 14.0827 2.91022C14.0798 3.31308 13.7869 3.6018 13.3558 3.62922ZM8.97591 1.46425C8.00897 1.46425 7.06084 1.46425 6.10386 1.46425C6.10386 1.70188 6.10386 1.92513 6.10386 2.16302C7.07812 2.16302 8.02584 2.16302 8.97591 2.16302C8.97591 1.91804 8.97591 1.68928 8.97591 1.46425ZM11.9018 3.63195C9.0202 3.63254 6.09035 3.63254 3.18465 3.63195C3.18233 5.98716 3.1816 9.89682 3.18528 12.1264C3.18606 12.5675 3.1661 13.0069 3.23316 13.452C3.32824 14.0826 3.89433 14.5391 4.53262 14.5416C6.538 14.5845 8.5435 14.5505 10.5489 14.5415C11.35 14.538 11.9014 13.9388 11.9021 13.1224C11.9098 10.5842 11.9352 6.30945 11.9018 3.63195ZM9.16225 12.3413C8.8486 12.421 8.5069 12.3151 8.40137 11.9734C8.30165 11.8495 8.27701 11.6979 8.27573 11.5584C8.28769 10.7325 8.27196 9.9066 8.27196 9.08065C8.27192 8.2623 8.27078 7.44395 8.27237 6.62559C8.27332 6.14057 8.56874 5.81374 8.99951 5.81988C9.4296 5.83216 9.7418 6.14471 9.74498 6.631C9.75589 8.28285 9.76044 9.9347 9.73998 11.5866C9.73498 11.9828 9.51795 12.2509 9.16225 12.3413ZM6.83541 11.6349C6.82904 11.9796 6.6132 12.2316 6.29642 12.3274C6.0006 12.4192 5.66522 12.3324 5.50116 12.0764C5.42286 11.9184 5.36939 11.7514 5.36857 11.6011C5.39176 9.92656 5.36075 8.25193 5.36416 6.57735C5.36507 6.13312 5.68208 5.81165 6.09594 5.82443C6.51185 5.85398 6.82722 6.16681 6.84678 6.59285C6.81809 7.4294 6.81549 8.27053 6.85542 9.11162C6.8536 9.9527 6.81886 10.7938 6.83541 11.6349Z" fill="#D3D6E1"/>
</svg>
