<svg width="28" height="28" viewBox="0 0 28 28" fill="none" xmlns="http://www.w3.org/2000/svg">
<circle cx="14" cy="14" r="14" fill="#FAD614"/>
<path d="M18.8026 17.3245L16.0653 14.001L18.9181 10.537H18.9136L19.9662 9.26118C20.059 9.14828 20.1179 9.01131 20.1359 8.86624C20.1539 8.72117 20.1303 8.57398 20.0679 8.4418C20.0054 8.30963 19.9067 8.19792 19.7832 8.1197C19.6597 8.04148 19.5166 7.99997 19.3704 8H8.4625C8.33989 8.00017 8.22235 8.04895 8.13565 8.13565C8.04895 8.22235 8.00017 8.33989 8 8.4625L8 19.5369C8 19.6596 8.04871 19.7773 8.13542 19.8641C8.22214 19.951 8.33978 19.9998 8.4625 20H19.371C19.5172 19.9999 19.6603 19.9582 19.7838 19.8799C19.9072 19.8016 20.0059 19.6899 20.0683 19.5577C20.1308 19.4255 20.1544 19.2783 20.1364 19.1332C20.1184 18.9881 20.0596 18.8512 19.9668 18.7382L18.802 17.3239L18.8026 17.3245ZM9.11382 18.8855V9.11382H18.6444L15.3425 13.1232L14.0935 12.0387C14.0211 11.9507 13.9301 11.8799 13.8271 11.8313C13.7241 11.7826 13.6116 11.7574 13.4976 11.7574H11.3982V12.8744H13.3362L14.621 13.9965L13.4511 14.9878H11.5137V16.1016H13.6137C13.7275 16.1017 13.8399 16.0765 13.9428 16.028C14.0457 15.9794 14.1366 15.9087 14.2089 15.821L15.3444 14.8775L18.645 18.8855H9.11382Z" fill="#202452"/>
</svg>
